<?xml version="1.0" encoding="UTF-8"?>
<svg id="logosandtypes_com" data-name="logosandtypes com" xmlns="http://www.w3.org/2000/svg" viewBox="0 0 150 150">
  <defs>
    <style>
      .cls-1 {
        fill: #f04e23;
      }

      .cls-2 {
        fill: none;
      }
    </style>
  </defs>
  <path id="Layer_3" data-name="Layer 3" class="cls-2" d="M0,0H150V150H0V0Z"/>
  <path class="cls-1" d="M109.02,37.91c-.26-.41-.73-.25-.61,.18,.66,2.4,.82,6.73-2.99,6.47-6.76-.45,.23-14.91-14.61-24.93-.3-.2-.65,.07-.49,.39,1.02,1.94,1.62,7.96-.73,10.02-1.88,1.65-5.35,1.21-8.67-4.22-5.54-9.05-3.44-18.72,.33-24.76,.28-.45-.1-.64-.43-.53-20.41,6.73-24.48,30.78-28.82,39.56-.73,1.46-1.36,2.23-2.61,2.15-3.72-.25-1.04-8.18,.25-10.96,.09-.14,.07-.33-.08-.42-.14-.1-.33-.07-.42,.07-10.49,10.94-19.99,29.62-21.82,46.98,0,0-.18,1.64-.28,2.85-.04,.53-.08,1.06-.11,1.59,0,.64-.06,1.27-.07,1.91,.02,26.36,21.41,47.71,47.77,47.68,26.01-.02,47.22-20.88,47.68-46.9,.02-.12,.01-.27,.01-.41,.6-11.76-3.43-31-13.3-46.74Zm-34.6,68.91h0c-12.23-.09-22.06-10.09-21.95-22.31,.1-12.23,10.09-22.06,22.32-21.95,12.23,.1,22.06,10.09,21.95,22.32-.1,12.23-10.1,22.05-22.33,21.95Z"/>
</svg>